<svg width="256" height="256" viewBox="0 0 256 256" fill="none" xmlns="http://www.w3.org/2000/svg">
<rect width="255.132" height="255.131" fill="black" fill-opacity="0" transform="translate(0.482239)"/>
<rect width="255.132" height="255.131" fill="black" fill-opacity="0" transform="translate(0.482239)"/>
<rect width="255.132" height="255.131" fill="black" fill-opacity="0" transform="translate(0.482239)"/>
<path d="M255.615 127.566C255.615 198.021 198.505 255.131 128.048 255.131C57.5983 255.131 0.482239 198.021 0.482239 127.566C0.482239 57.1161 57.5983 0 128.048 0C198.505 0 255.615 57.1161 255.615 127.566Z" fill="#1A1918"/>
<path d="M130.196 77.9271L163.208 159.403L113.344 120.126L130.196 77.9271ZM188.84 178.172L138.062 55.9702C136.612 52.4459 133.714 50.581 130.196 50.581C126.672 50.581 123.562 52.4459 122.113 55.9702L66.3797 190.011H85.445L107.507 134.745L173.346 187.935C175.994 190.076 177.905 191.045 180.388 191.045C185.362 191.045 189.71 187.316 189.71 181.934C189.71 181.058 189.4 179.668 188.84 178.172Z" fill="white"/>
</svg>
