<svg xmlns="http://www.w3.org/2000/svg" style="-ms-transform:rotate(360deg);-webkit-transform:rotate(360deg)" transform="rotate(360)" viewBox="0 0 512 512">
  <path fill="#626262" d="M409.7 176.3v-44.7H0v204h102.3v44.8H512v-204H409.7zM93.5 218c-7.7 2.8-12.9 15-12.9 32.6V302l-21 4.6v-82c0-12-2.9-16.1-12.9-17v-4.1h33.5v15.6c3-7 5-12.3 13.1-15.6a25.6 25.6 0 0121.7 2.6l-8.4 17c-4.9-4.6-9-6.7-13.1-5.2zm41.4 15.6s9.8 7 27.8 15.7c18 8.8 13.2 29.6 13.2 29.6-6 18.9-38 35.8-64.2 11.6l16.6-12.1s30.2 22 31.5 2c1.1-16.6-29.1-15.8-40-34.2-5-8.4-4.8-22.3 5-33.7 4.9-5.7 10.3-10.6 17.5-11.4 26.1-3.2 37 12.9 37 12.9L165 227.7c-13.9-14-27-15.8-32.3-9.5-3.6 4.3-3 9.7 2.1 15.4zm91.4 83c-7.4 17.3-24 24.9-46.8 23.3v-4c27.8-7.2 22-11.4 40.6-43.8l-41-87 18.8-3.9 31.2 71 30.7-71.4 20.6 6.2-54.1 109.6zm150-17.4c-5.8 0-28.7 1-28.7 1s7.1-48.5 7.4-60.4c-.6-16-7.3-25.5-24.3-24.6-8 .7-13.9 6.5-14.7 21.2-2.2 42.5-3.6 62.9-3.6 62.9l-21.2 2.1a875.4 875.4 0 003.3-87.6c0-3.6-5.6-6.8-13.9-8.7v-6H315l-1.6 17.2s14-18 30.9-17.4c20.8.7 30.1 13.8 31.4 27 2.1 22.6-7 66.8-7 66.8h12.4s1.2 6.5-4.7 6.5zm47.1-29.3c7.1 11.1 13.6 24.2 36 11.5 7.5-4.2 4 6 4 6s-16.7 13-30 13c-17.6 0-29.2-13.5-33.1-25.2a99 99 0 01-5.2-42.3c4.4-30.6 39-33.8 39-33.8 9.9 0 21 6.8 32.7 17.1L451.2 227s-15.6-19.1-26.2-15.1c-4.8 1.8-8.1 8.6-9.1 20.8-1.4 16 2 28.7 7.5 37.3z"/>
  <path fill="rgba(0, 0, 0, 0)" d="M0 0h512v512H0z"/>
</svg>
