<?xml version="1.0" standalone="no"?>
<!DOCTYPE svg PUBLIC "-//W3C//DTD SVG 20010904//EN"
 "http://www.w3.org/TR/2001/REC-SVG-20010904/DTD/svg10.dtd">
<svg version="1.0" xmlns="http://www.w3.org/2000/svg"
 width="465.000000pt" height="512.000000pt" viewBox="0 0 465.000000 512.000000"
 preserveAspectRatio="xMidYMid meet">

<g transform="translate(0.000000,512.000000) scale(0.100000,-0.100000)"
fill="#000000" stroke="none">
<path d="M3 3974 c3 -1016 6 -1163 21 -1269 82 -582 310 -1084 705 -1555 374
-446 938 -862 1505 -1112 l91 -40 75 33 c633 274 1257 757 1646 1274 262 350
441 735 534 1150 64 286 63 259 67 1513 l4 1142 -2310 0 c-1270 0 -2317 3
-2326 6 -15 6 -16 -84 -12 -1142z m2222 1084 c22 -118 50 -340 44 -349 -3 -6
-30 -12 -58 -14 -114 -8 -171 -51 -171 -130 0 -24 5 -56 10 -71 6 -15 8 -29 6
-32 -11 -10 -36 22 -46 59 -12 44 -43 67 -66 48 -20 -17 -17 -43 12 -100 20
-41 34 -55 71 -71 30 -13 57 -18 79 -15 32 5 45 -5 24 -18 -5 -3 -14 -15 -20
-25 -10 -18 -7 -19 37 -13 49 5 139 -15 196 -44 31 -15 63 -73 54 -96 -3 -9
-39 -34 -79 -57 -139 -80 -153 -91 -134 -102 10 -6 33 -8 52 -6 53 6 48 1 -69
-77 -70 -47 -77 -65 -26 -65 16 0 29 -4 29 -9 0 -4 -28 -38 -61 -75 -46 -50
-59 -70 -50 -79 18 -18 14 -23 -29 -36 -42 -12 -47 -20 -29 -38 6 -6 8 -17 4
-24 -9 -14 -184 -6 -229 11 l-29 10 8 109 c4 70 3 116 -4 129 -18 33 -65 45
-150 39 -76 -6 -79 -5 -103 21 -33 36 -48 81 -55 173 l-6 75 49 19 c53 20 127
83 150 128 21 40 29 154 15 214 -9 37 -24 61 -54 91 -70 68 -87 72 -339 72
-238 0 -348 12 -453 49 -86 31 -88 30 -65 -31 55 -146 157 -233 295 -254 l50
-7 -40 -14 c-98 -34 -288 -76 -369 -82 -54 -4 -91 -11 -93 -18 -7 -19 99 -119
157 -148 51 -26 57 -27 179 -22 69 2 137 8 151 13 15 5 -20 -36 -95 -108 -149
-143 -208 -194 -308 -265 -75 -53 -77 -56 -61 -74 43 -47 180 -57 261 -18 27
13 90 64 144 116 53 51 99 93 103 93 9 0 -264 -538 -402 -792 -56 -102 -102
-190 -102 -194 0 -4 27 -4 61 -1 121 11 211 90 368 322 103 153 131 192 131
180 0 -4 -16 -47 -35 -94 -46 -117 -70 -224 -94 -421 -37 -303 -61 -399 -205
-818 -31 -89 -56 -167 -56 -173 0 -7 12 -8 33 -4 61 12 134 55 185 108 92 98
153 250 297 737 31 107 69 233 84 280 l26 85 3 -140 c4 -189 -22 -544 -62
-860 -19 -143 -32 -262 -31 -264 2 -1 27 5 56 14 147 49 277 287 338 620 19
104 41 267 41 309 0 52 11 -7 34 -194 36 -278 36 -280 53 -280 7 0 33 20 58
44 59 60 71 107 85 346 11 199 18 266 26 257 3 -2 11 -60 19 -128 8 -68 22
-173 31 -234 9 -60 14 -131 11 -157 -6 -71 -57 -164 -137 -250 -57 -62 -68
-79 -55 -84 14 -6 13 -10 -7 -31 l-23 -25 21 -15 c21 -14 19 -18 -120 -228
-77 -117 -145 -214 -151 -214 -5 -1 -21 27 -35 61 l-26 62 -94 36 c-52 19
-105 41 -117 48 -36 20 -72 14 -104 -17 -38 -38 -37 -51 5 -51 41 0 56 -16 49
-52 -3 -17 -13 -28 -29 -32 -47 -12 -155 -79 -201 -125 -104 -103 -193 -390
-154 -494 16 -42 230 -137 310 -137 115 0 405 144 510 254 l35 36 43 -45 c47
-49 63 -56 63 -25 0 11 4 20 9 20 5 0 8 -14 7 -31 -1 -28 5 -35 59 -68 127
-77 306 -141 395 -141 68 0 195 39 307 96 159 79 193 105 193 149 0 38 19 48
27 14 6 -20 6 -20 32 5 l27 26 49 -51 c124 -126 332 -239 441 -239 78 0 197
45 342 128 l63 37 -7 40 c-3 22 -23 98 -44 168 -27 92 -36 139 -33 167 6 44
-13 84 -45 94 -11 4 -27 25 -37 47 -16 34 -30 46 -86 75 -37 18 -70 38 -74 44
-12 19 16 40 51 40 43 0 44 19 3 54 -34 29 -68 33 -107 11 -15 -8 -65 -29
-112 -47 -47 -18 -97 -44 -111 -58 -27 -26 -77 -56 -82 -49 -57 82 -247 370
-247 375 0 4 7 12 17 19 15 11 15 14 0 35 -12 18 -14 27 -5 37 8 10 -6 30 -62
89 -90 95 -135 183 -134 264 0 62 51 454 63 485 5 12 10 -20 15 -85 27 -416
27 -415 71 -480 25 -36 82 -77 92 -66 8 7 38 210 54 363 7 62 15 110 19 108 4
-2 10 -46 13 -97 12 -177 86 -477 149 -603 38 -76 107 -163 154 -193 49 -33
112 -58 121 -48 3 3 -4 77 -16 163 -43 316 -62 532 -67 753 -2 124 -6 249 -8
278 -1 29 1 49 5 45 7 -8 39 -110 99 -318 89 -310 174 -550 237 -670 48 -92
129 -161 223 -189 29 -9 55 -16 57 -16 10 0 -1 49 -31 131 -146 406 -184 557
-221 869 -24 200 -49 306 -114 473 -20 51 7 18 111 -136 161 -237 265 -327
380 -327 26 0 48 5 48 10 0 6 -31 68 -69 138 -143 262 -431 822 -431 838 0 3
45 -37 100 -89 124 -118 169 -142 266 -141 75 1 147 27 151 55 1 8 -44 47
-100 87 -100 71 -411 363 -372 348 37 -14 190 -24 248 -16 32 5 77 20 100 33
49 29 137 119 137 140 0 11 -23 15 -94 20 -60 3 -142 18 -232 42 -171 45 -181
50 -118 60 64 9 150 54 196 102 37 38 108 162 108 189 0 19 -15 18 -77 -6 -96
-36 -223 -50 -461 -50 -247 0 -262 -3 -330 -65 -51 -46 -66 -89 -66 -190 0
-61 5 -90 22 -121 27 -54 88 -107 147 -129 l48 -19 -5 -88 c-4 -70 -11 -99
-34 -145 l-29 -58 -89 3 c-104 4 -132 -6 -145 -54 -5 -18 -7 -69 -4 -113 5
-74 4 -80 -17 -91 -35 -19 -217 -37 -232 -22 -8 8 -8 15 1 26 10 12 7 17 -16
31 -15 9 -37 28 -47 42 l-19 26 26 -7 c15 -3 27 -5 27 -4 0 2 -11 30 -25 63
-19 45 -25 78 -25 135 0 89 13 120 30 75 11 -28 12 -29 20 -9 5 12 12 42 15
68 9 56 20 65 49 37 12 -12 25 -19 28 -16 5 5 -14 113 -27 155 -4 13 2 15 29
12 46 -5 54 13 20 49 -24 25 -26 31 -14 39 8 5 19 10 24 10 13 0 56 41 56 52
0 5 -11 8 -24 6 -15 -2 -34 6 -50 21 -31 29 -33 41 -7 41 37 0 31 18 -14 51
-50 36 -54 44 -25 52 29 8 24 27 -10 40 -16 6 -30 16 -30 22 0 5 33 78 74 160
41 83 73 151 71 153 -1 1 -31 -9 -66 -22 l-64 -24 -5 -56 c-3 -31 -12 -62 -21
-71 -14 -14 -18 -14 -41 5 -15 11 -30 35 -33 52 l-7 32 -15 -27 c-15 -29 -24
-32 -54 -17 -27 15 -25 65 6 102 l24 29 -27 49 c-15 27 -31 50 -37 50 -5 0
-25 -13 -44 -29 l-34 -28 13 -50 c14 -55 8 -101 -16 -110 -18 -7 -54 24 -54
46 0 11 -7 8 -23 -11 -28 -34 -74 -47 -83 -24 -4 9 -1 44 6 78 l12 61 -53 53
-53 54 1202 0 1202 0 0 -1039 c0 -628 -4 -1089 -10 -1167 -39 -474 -166 -882
-401 -1280 -125 -212 -296 -433 -383 -495 -90 -64 -275 -156 -345 -170 -33 -7
-61 -15 -61 -19 1 -10 75 -57 113 -71 37 -13 50 -29 23 -29 -18 0 -106 47
-132 71 -11 10 -24 19 -28 19 -5 0 -35 -25 -68 -55 -116 -108 -269 -194 -359
-203 -27 -2 -49 -8 -49 -11 0 -25 147 -136 192 -146 20 -5 27 -10 20 -17 -18
-18 -96 27 -167 94 l-68 65 -62 -47 c-122 -93 -335 -198 -435 -216 -64 -12
-65 -18 -8 -62 63 -48 168 -100 221 -108 20 -4 37 -11 37 -17 0 -36 -208 56
-286 126 l-48 44 -49 -38 c-86 -64 -274 -148 -298 -133 -7 4 11 14 42 24 62
19 173 75 238 119 l44 30 -29 6 c-135 27 -358 131 -463 216 l-62 50 -47 -39
c-59 -50 -167 -104 -195 -99 -21 3 -21 4 -2 11 112 45 215 110 215 137 0 5
-13 9 -28 9 -92 0 -310 111 -434 220 l-45 39 -34 -35 c-30 -32 -78 -64 -94
-64 -16 0 0 18 35 38 35 20 79 68 69 75 -2 2 -31 8 -63 15 -96 19 -251 98
-324 166 -43 40 -192 227 -264 331 -256 373 -412 770 -486 1235 l-26 165 -3
1128 -4 1127 1100 0 1100 0 6 -32z m-10 -572 l40 -13 -41 -11 c-61 -18 -134
-26 -134 -16 0 17 16 33 40 43 32 13 46 12 95 -3z m141 -80 c10 -8 17 -17 14
-20 -7 -6 -85 16 -96 27 -14 13 62 7 82 -7z m-115 -2268 c0 -168 -45 -257
-152 -297 -104 -39 -161 -89 -210 -183 -10 -20 -15 -39 -11 -42 4 -2 28 5 52
16 33 16 67 22 127 23 71 1 86 5 123 29 23 15 44 25 47 22 3 -2 2 -17 -1 -33
-6 -23 -25 -38 -99 -80 -51 -29 -107 -62 -124 -74 -26 -16 -33 -18 -33 -7 0
29 -37 51 -72 44 -79 -16 -195 2 -185 29 9 21 298 420 307 423 9 3 23 -23 46
-83 7 -17 9 -15 12 13 3 33 19 43 28 17 11 -29 21 -15 28 40 3 30 15 79 26
109 21 54 77 142 86 133 3 -2 5 -47 5 -99z m334 27 c27 -45 55 -143 55 -192 0
-37 6 -40 32 -16 17 15 18 15 18 -10 0 -15 5 -27 10 -27 6 0 10 5 10 11 0 17
31 79 40 79 8 0 242 -321 275 -378 l19 -32 -24 -24 c-28 -27 -74 -34 -133 -22
-32 7 -44 5 -67 -13 l-29 -21 -22 29 c-12 16 -41 44 -66 62 -42 32 -43 34 -21
42 33 13 123 0 170 -24 22 -11 42 -18 46 -15 12 12 -36 93 -83 141 -37 37 -71
59 -134 85 -84 35 -84 35 -119 101 -30 58 -35 79 -40 157 -2 49 -1 103 2 119
7 27 8 27 23 8 8 -11 25 -38 38 -60z m-622 -691 c3 -3 0 -19 -8 -36 -9 -23
-25 -36 -61 -49 -26 -10 -49 -17 -50 -16 -1 1 -5 12 -8 25 -7 19 -4 22 24 22
26 0 31 4 37 30 4 24 10 30 33 30 14 0 29 -3 33 -6z m911 -24 c3 -18 12 -30
21 -30 13 0 14 -4 4 -22 -6 -13 -13 -25 -15 -27 -1 -2 -17 7 -33 19 -24 17
-31 29 -31 56 0 29 3 34 24 34 18 0 25 -7 30 -30z"/>
<path d="M1715 1174 c-128 -107 -321 -214 -424 -235 -33 -7 -61 -15 -60 -19 0
-8 109 -94 159 -125 78 -50 193 -102 261 -119 107 -26 225 -6 373 64 103 49
276 164 276 183 0 2 -26 7 -57 11 -128 15 -349 126 -463 232 l-35 33 -30 -25z"/>
<path d="M2870 1168 c-123 -106 -354 -221 -471 -235 l-50 -6 23 -24 c36 -39
178 -129 269 -172 49 -23 122 -47 172 -57 76 -15 97 -16 159 -4 74 13 178 61
258 119 62 45 141 121 135 130 -2 5 -22 11 -42 14 -83 14 -277 130 -378 227
l-40 38 -35 -30z"/>
<path d="M2304 898 c-82 -90 -396 -248 -494 -248 -16 0 -31 -4 -34 -9 -10 -16
119 -102 249 -166 242 -118 357 -119 590 -4 85 42 265 158 265 171 0 5 -18 8
-40 8 -94 0 -326 111 -455 217 l-63 52 -18 -21z"/>
</g>
</svg>
